<svg width="250" height="250" viewBox="0 0 250 250" fill="none" xmlns="http://www.w3.org/2000/svg">
<rect x="73.3416" y="73.596" width="103.544" height="103.865" fill="#007BA7"/>
<rect width="108.34" height="103.65" transform="matrix(0.706009 0.708203 -0.706009 0.708203 73.4885 0)" fill="#FFA07A"/>
<rect width="108.339" height="103.648" transform="matrix(-0.694791 -0.719211 0.717064 -0.697007 175.677 250)" fill="#FFA07A"/>
<rect width="108.339" height="103.648" transform="matrix(0.694791 -0.719211 0.717064 0.697007 0 177.756)" fill="#FFA07A"/>
<rect width="108.34" height="103.65" transform="matrix(-0.706009 0.708203 -0.706009 -0.708203 249.728 73.444)" fill="#FFA07A"/>
<path d="M133.256 170V167.44C135.987 167.269 138.035 166.928 139.4 166.416C140.765 165.904 141.661 164.88 142.088 163.344C142.6 161.808 142.856 159.504 142.856 156.432V92.944C142.856 89.7867 142.6 87.4827 142.088 86.032C141.661 84.496 140.723 83.472 139.272 82.96C137.907 82.3627 135.901 82.0213 133.256 81.936V79.376C135.56 79.4613 138.547 79.5467 142.216 79.632C145.971 79.7173 149.683 79.76 153.352 79.76C157.277 79.76 160.947 79.7173 164.36 79.632C167.859 79.5467 170.675 79.4613 172.808 79.376V81.936C170.077 82.0213 167.987 82.3627 166.536 82.96C165.171 83.472 164.275 84.496 163.848 86.032C163.421 87.4827 163.208 89.7867 163.208 92.944V156.432C163.208 159.504 163.421 161.808 163.848 163.344C164.36 164.88 165.299 165.904 166.664 166.416C168.029 166.928 170.077 167.269 172.808 167.44V170C170.675 169.829 167.859 169.744 164.36 169.744C160.947 169.659 157.277 169.616 153.352 169.616C149.683 169.616 145.971 169.659 142.216 169.744C138.547 169.744 135.56 169.829 133.256 170ZM78.9838 170V167.44C81.7145 167.269 83.7625 166.928 85.1278 166.416C86.4932 165.904 87.3892 164.88 87.8158 163.344C88.3278 161.808 88.5838 159.504 88.5838 156.432V92.944C88.5838 89.7867 88.3278 87.4827 87.8158 86.032C87.3892 84.496 86.4505 83.472 84.9998 82.96C83.6345 82.3627 81.6292 82.0213 78.9838 81.936V79.376C81.2025 79.4613 84.0612 79.5467 87.5598 79.632C91.1438 79.7173 95.0265 79.76 99.2078 79.76C102.792 79.76 106.333 79.7173 109.832 79.632C113.331 79.5467 116.232 79.4613 118.536 79.376V81.936C115.805 82.0213 113.715 82.3627 112.264 82.96C110.899 83.472 110.003 84.496 109.576 86.032C109.149 87.4827 108.936 89.7867 108.936 92.944V156.432C108.936 159.504 109.149 161.808 109.576 163.344C110.088 164.88 111.027 165.904 112.392 166.416C113.757 166.928 115.805 167.269 118.536 167.44V170C116.232 169.829 113.331 169.744 109.832 169.744C106.333 169.659 102.792 169.616 99.2078 169.616C95.0265 169.616 91.1438 169.659 87.5598 169.744C84.0612 169.744 81.2025 169.829 78.9838 170ZM100.616 125.712V123.152H151.176V125.712H100.616Z" fill="#007BA7"/>
</svg>
